<?xml version="1.0" encoding="UTF-8" standalone="no"?>
<!DOCTYPE svg PUBLIC "-//W3C//DTD SVG 1.1//EN" "http://www.w3.org/Graphics/SVG/1.1/DTD/svg11.dtd">
<svg xmlns="http://www.w3.org/2000/svg" version="1.1" viewBox="0.00 0.00 936.00 900.00">
<g stroke-width="2.00" fill="none" stroke-linecap="butt">
<path stroke="#7c7d7e" vector-effect="non-scaling-stroke" d="
  M 347.0216 46.2623
  A 0.29 0.29 0.0 0 0 346.7321 45.9718
  L 321.8121 45.9283
  A 0.29 0.29 0.0 0 0 321.5216 46.2178
  L 321.4784 70.9377
  A 0.29 0.29 0.0 0 0 321.7679 71.2282
  L 346.6879 71.2717
  A 0.29 0.29 0.0 0 0 346.9784 70.9822
  L 347.0216 46.2623"
/>
<path stroke="#7c7d7e" vector-effect="non-scaling-stroke" d="
  M 616.5216 46.2423
  A 0.27 0.27 0.0 0 0 616.2521 45.9718
  L 591.2921 45.9282
  A 0.27 0.27 0.0 0 0 591.0216 46.1978
  L 590.9784 70.9577
  A 0.27 0.27 0.0 0 0 591.2479 71.2282
  L 616.2079 71.2718
  A 0.27 0.27 0.0 0 0 616.4784 71.0022
  L 616.5216 46.2423"
/>
<path stroke="#7c7d7e" vector-effect="non-scaling-stroke" d="
  M 481.5815 46.2921
  A 0.27 0.27 0.0 0 0 481.3120 46.0216
  L 456.5320 45.9784
  A 0.27 0.27 0.0 0 0 456.2616 46.2479
  L 456.2185 70.9479
  A 0.27 0.27 0.0 0 0 456.4880 71.2184
  L 481.2680 71.2616
  A 0.27 0.27 0.0 0 0 481.5384 70.9921
  L 481.5815 46.2921"
/>
<path stroke="#7c7d7e" vector-effect="non-scaling-stroke" d="
  M 637.76 185.59
  C 637.56 179.63 634.16 179.48 629.25 179.48
  Q 469.97 179.24 310.69 179.27
  C 302.22 179.27 300.00 179.86 299.99 189.18
  Q 299.98 196.67 300.01 204.26
  Q 300.02 204.75 300.51 204.75
  L 637.50 204.75
  A 0.51 0.51 0.0 0 0 638.01 204.25
  Q 638.07 194.88 637.76 185.59"
/>
<path stroke="#7c7d7e" vector-effect="non-scaling-stroke" d="
  M 218.50 385.89
  C 218.49 367.11 243.75 366.70 243.75 386.24
  Q 243.75 526.71 243.68 667.19
  Q 243.68 680.81 257.50 680.79
  Q 370.14 680.66 482.78 680.43
  Q 483.17 680.43 483.50 680.65
  Q 483.72 680.79 484.00 680.79
  Q 582.47 680.78 680.93 680.72
  C 691.21 680.72 694.00 675.29 694.00 665.99
  Q 694.00 455.80 694.00 245.62
  C 694.00 236.88 692.10 230.25 682.25 230.25
  Q 471.47 230.25 260.68 230.25
  C 250.62 230.25 243.81 231.61 243.79 243.08
  Q 243.72 281.90 243.74 320.72
  Q 243.75 326.28 242.46 328.94
  C 238.23 337.62 225.31 338.24 220.47 329.67
  Q 218.48 326.16 218.49 321.25
  Q 218.56 304.11 218.47 286.96
  Q 218.47 286.46 217.96 286.46
  Q 209.47 286.54 200.96 286.50
  C 196.32 286.47 193.01 287.61 193.00 292.75
  Q 192.99 454.57 193.01 616.39
  C 193.01 620.36 193.92 624.15 198.32 624.43
  Q 202.47 624.69 217.97 624.43
  Q 218.46 624.42 218.46 623.93
  Q 218.52 504.90 218.50 385.89"
/>
<path stroke="#7c7d7e" vector-effect="non-scaling-stroke" d="
  M 719.50 287.02
  L 719.50 623.98
  Q 719.50 624.44 719.96 624.44
  Q 728.74 624.56 737.49 624.68
  Q 745.00 624.78 745.00 617.50
  Q 745.01 455.03 744.99 292.56
  C 744.99 287.63 741.51 286.52 737.10 286.50
  Q 728.54 286.46 720.00 286.52
  Q 719.50 286.52 719.50 287.02"
/>
<path stroke="#7c7d7e" vector-effect="non-scaling-stroke" d="
  M 85.0116 308.2620
  A 0.26 0.26 0.0 0 0 84.7521 308.0016
  L 60.0321 307.9584
  A 0.26 0.26 0.0 0 0 59.7716 308.2180
  L 59.7284 332.9980
  A 0.26 0.26 0.0 0 0 59.9879 333.2584
  L 84.7079 333.3016
  A 0.26 0.26 0.0 0 0 84.9684 333.0420
  L 85.0116 308.2620"
/>
<path stroke="#7c7d7e" vector-effect="non-scaling-stroke" d="
  M 878.2716 308.2723
  A 0.27 0.27 0.0 0 0 878.0021 308.0018
  L 853.0421 307.9582
  A 0.27 0.27 0.0 0 0 852.7716 308.2278
  L 852.7284 332.9877
  A 0.27 0.27 0.0 0 0 852.9979 333.2582
  L 877.9579 333.3018
  A 0.27 0.27 0.0 0 0 878.2284 333.0322
  L 878.2716 308.2723"
/>
<path stroke="#7c7d7e" vector-effect="non-scaling-stroke" d="
  M 85.00 443.00
  A 0.27 0.27 0.0 0 0 84.73 442.73
  L 60.03 442.73
  A 0.27 0.27 0.0 0 0 59.76 443.00
  L 59.76 467.98
  A 0.27 0.27 0.0 0 0 60.03 468.25
  L 84.73 468.25
  A 0.27 0.27 0.0 0 0 85.00 467.98
  L 85.00 443.00"
/>
<path stroke="#7c7d7e" vector-effect="non-scaling-stroke" d="
  M 878.2284 443.1078
  A 0.39 0.39 0.0 0 0 877.8377 442.7185
  L 853.1378 442.7616
  A 0.39 0.39 0.0 0 0 852.7484 443.1523
  L 852.7916 467.8722
  A 0.39 0.39 0.0 0 0 853.1823 468.2615
  L 877.8822 468.2184
  A 0.39 0.39 0.0 0 0 878.2716 467.8277
  L 878.2284 443.1078"
/>
<path stroke="#7c7d7e" vector-effect="non-scaling-stroke" d="
  M 84.9682 577.7380
  A 0.26 0.26 0.0 0 0 84.7077 577.4784
  L 59.9878 577.5216
  A 0.26 0.26 0.0 0 0 59.7282 577.7820
  L 59.7718 602.7620
  A 0.26 0.26 0.0 0 0 60.0323 603.0216
  L 84.7522 602.9784
  A 0.26 0.26 0.0 0 0 85.0118 602.7180
  L 84.9682 577.7380"
/>
<path stroke="#7c7d7e" vector-effect="non-scaling-stroke" d="
  M 878.25 578.01
  A 0.51 0.51 0.0 0 0 877.74 577.50
  L 853.26 577.50
  A 0.51 0.51 0.0 0 0 852.75 578.01
  L 852.75 602.49
  A 0.51 0.51 0.0 0 0 853.26 603.00
  L 877.74 603.00
  A 0.51 0.51 0.0 0 0 878.25 602.49
  L 878.25 578.01"
/>
<path stroke="#7c7d7e" vector-effect="non-scaling-stroke" d="
  M 300.02 723.32
  C 300.12 734.26 308.25 731.50 315.34 731.50
  Q 473.21 731.50 631.08 731.50
  C 635.59 731.50 637.74 729.35 637.88 724.72
  Q 638.15 715.77 637.95 706.71
  Q 637.94 706.25 637.48 706.25
  L 300.51 706.25
  Q 300.03 706.25 300.03 706.73
  Q 299.94 715.08 300.02 723.32"
/>
<path stroke="#7c7d7e" vector-effect="non-scaling-stroke" d="
  M 347.00 839.94
  A 0.44 0.44 0.0 0 0 346.56 839.50
  L 321.94 839.50
  A 0.44 0.44 0.0 0 0 321.50 839.94
  L 321.50 864.56
  A 0.44 0.44 0.0 0 0 321.94 865.00
  L 346.56 865.00
  A 0.44 0.44 0.0 0 0 347.00 864.56
  L 347.00 839.94"
/>
<path stroke="#7c7d7e" vector-effect="non-scaling-stroke" d="
  M 481.7816 840.3446
  A 0.79 0.79 0.0 0 0 480.9944 839.5518
  L 457.0745 839.4683
  A 0.79 0.79 0.0 0 0 456.2818 840.2556
  L 456.1984 864.1554
  A 0.79 0.79 0.0 0 0 456.9856 864.9482
  L 480.9055 865.0317
  A 0.79 0.79 0.0 0 0 481.6982 864.2444
  L 481.7816 840.3446"
/>
<path stroke="#7c7d7e" vector-effect="non-scaling-stroke" d="
  M 616.5324 840.1346
  A 0.56 0.56 0.0 0 0 615.9744 839.5726
  L 591.5945 839.4875
  A 0.56 0.56 0.0 0 0 591.0326 840.0456
  L 590.9476 864.3854
  A 0.56 0.56 0.0 0 0 591.5056 864.9474
  L 615.8855 865.0325
  A 0.56 0.56 0.0 0 0 616.4474 864.4744
  L 616.5324 840.1346"
/>
<path stroke="#7c7d7e" vector-effect="non-scaling-stroke" d="
  M 294.96 320.06
  C 295.00 297.94 311.62 281.28 333.75 281.28
  Q 466.07 281.24 598.39 281.26
  Q 610.00 281.26 614.86 282.55
  C 627.48 285.88 637.96 296.18 641.47 308.64
  Q 642.99 314.03 643.00 328.50
  Q 643.01 457.70 642.99 586.89
  Q 642.99 596.88 641.57 601.84
  C 637.09 617.51 623.27 628.69 606.76 629.47
  C 601.10 629.73 591.54 628.72 586.74 630.81
  C 574.79 636.02 578.40 654.54 591.50 654.98
  C 597.94 655.20 607.58 655.31 614.39 654.29
  C 646.25 649.52 668.50 622.35 668.50 590.50
  Q 668.52 459.16 668.48 327.81
  Q 668.48 313.76 667.44 307.88
  C 662.68 280.82 640.58 260.33 613.96 256.53
  Q 608.38 255.74 594.00 255.74
  Q 467.40 255.76 340.80 255.76
  Q 327.24 255.76 320.89 256.95
  C 291.93 262.42 269.51 288.75 269.50 318.00
  Q 269.49 451.82 269.51 585.63
  Q 269.51 598.61 270.93 605.13
  C 276.11 629.04 294.96 648.01 318.91 653.46
  C 325.94 655.06 333.94 655.17 341.50 655.18
  Q 425.28 655.30 509.06 655.21
  Q 520.06 655.19 526.77 655.05
  Q 531.28 654.96 533.62 653.99
  C 543.75 649.80 544.06 635.72 534.25 631.01
  Q 531.58 629.74 526.88 629.74
  Q 431.47 629.79 336.07 629.70
  C 311.87 629.68 294.79 613.96 294.78 589.50
  Q 294.71 454.78 294.96 320.06"
/>
<path stroke="#7c7d7e" vector-effect="non-scaling-stroke" d="
  M 518.59 449.39
  Q 532.40 476.13 545.89 503.02
  Q 548.62 508.46 554.74 508.46
  C 560.08 508.45 562.84 506.15 565.08 501.21
  C 573.18 483.34 579.40 464.21 586.34 445.83
  A 0.25 0.25 0.0 0 1 586.82 445.86
  Q 593.55 474.80 596.77 504.26
  C 598.74 522.17 618.98 517.30 617.06 501.42
  Q 611.65 456.79 599.58 413.48
  C 595.69 399.54 581.98 400.38 577.26 413.22
  Q 566.04 443.74 554.09 474.03
  Q 553.86 474.62 553.54 474.07
  C 542.30 454.21 532.69 432.82 522.35 412.44
  C 519.64 407.11 514.65 402.17 508.30 404.37
  C 502.56 406.35 501.08 411.65 500.57 417.31
  Q 497.21 454.30 493.46 491.25
  C 492.88 496.91 491.18 506.27 493.47 510.92
  C 497.96 520.04 510.99 516.27 512.75 506.98
  C 514.63 497.11 515.13 482.13 515.76 474.90
  Q 516.87 462.19 518.07 449.49
  Q 518.16 448.54 518.59 449.39"
/>
<path stroke="#7c7d7e" vector-effect="non-scaling-stroke" d="
  M 351.66 493.75
  A 0.40 0.40 0.0 0 1 351.26 493.34
  Q 351.68 453.75 351.45 414.22
  C 351.39 402.59 333.93 400.99 332.02 411.50
  Q 330.98 417.22 330.92 425.50
  Q 330.64 461.69 330.76 497.89
  C 330.78 504.08 331.88 512.65 339.02 514.18
  Q 339.68 514.33 348.52 514.25
  Q 369.61 514.09 390.68 513.91
  C 402.48 513.81 408.04 500.36 396.40 494.00
  Q 394.40 492.92 391.39 493.03
  Q 371.50 493.78 351.66 493.75"
/>
<path stroke="#7c7d7e" vector-effect="non-scaling-stroke" d="
  M 434.72 493.75
  A 0.44 0.44 0.0 0 1 434.28 493.31
  Q 434.67 453.78 434.46 414.51
  C 434.39 402.25 416.34 400.71 414.85 412.57
  Q 414.00 419.38 413.94 426.25
  C 413.76 448.00 414.06 469.80 413.59 491.53
  C 413.45 497.74 413.24 510.29 419.91 513.43
  Q 422.12 514.47 427.87 514.36
  Q 450.65 513.92 473.43 513.75
  C 490.52 513.62 488.74 492.52 473.89 493.06
  Q 454.26 493.77 434.72 493.75"
/>
</g>
<path fill="#000000" d="
  M 347.18 154.48
  Q 400.80 155.16 454.69 154.44
  Q 456.81 154.41 456.80 151.69
  Q 456.78 125.08 456.73 98.11
  A 1.53 1.52 -89.2 0 0 455.26 96.59
  C 441.02 96.07 431.35 87.08 431.47 72.87
  Q 431.57 59.54 431.47 46.24
  Q 431.42 39.99 432.65 36.38
  Q 436.13 26.16 446.02 22.47
  Q 450.26 20.89 458.60 20.78
  C 476.40 20.55 505.10 16.21 506.46 43.06
  Q 507.28 59.12 506.51 75.17
  C 505.87 88.48 495.11 96.35 482.11 96.70
  A 0.88 0.88 0.0 0 0 481.25 97.58
  L 481.25 152.99
  Q 481.25 153.50 481.70 153.76
  Q 482.95 154.47 484.75 154.49
  Q 532.16 155.03 589.00 154.51
  Q 591.35 154.49 591.36 152.19
  Q 591.52 124.72 591.51 97.19
  A 0.49 0.48 1.2 0 0 591.04 96.71
  C 560.91 95.47 565.27 68.08 566.02 45.35
  C 566.37 34.64 570.52 26.18 580.95 22.37
  C 588.87 19.48 601.53 20.70 610.55 20.74
  Q 621.98 20.78 626.69 22.49
  C 637.93 26.56 641.26 35.85 641.42 47.31
  C 641.55 56.43 642.09 68.65 641.25 75.53
  Q 638.85 95.22 616.60 96.85
  Q 615.98 96.90 615.98 97.52
  L 616.03 153.22
  A 1.34 1.33 89.0 0 0 617.40 154.55
  C 625.45 154.35 635.58 153.57 642.90 156.34
  Q 655.14 160.97 660.46 172.94
  C 664.07 181.06 663.35 194.07 662.86 202.62
  A 2.72 2.71 -88.0 0 0 665.53 205.49
  Q 675.09 205.65 684.54 205.85
  C 698.66 206.16 709.83 213.55 715.84 226.41
  C 720.38 236.13 719.10 249.06 719.01 259.56
  Q 719.00 260.08 719.38 260.44
  C 721.26 262.24 736.63 261.65 740.12 261.79
  C 751.99 262.25 761.50 267.95 766.83 278.61
  C 770.82 286.60 770.46 297.93 769.84 306.84
  A 1.14 1.13 -87.1 0 0 770.93 308.06
  C 789.38 308.69 807.81 308.16 826.06 308.28
  Q 827.48 308.29 827.56 306.87
  C 828.61 289.28 839.41 282.95 855.27 282.99
  Q 867.76 283.02 880.25 283.11
  C 891.83 283.19 900.53 290.46 903.16 301.51
  Q 903.87 304.50 903.90 310.42
  C 903.98 327.79 907.82 350.54 887.09 357.38
  Q 883.42 358.59 877.36 358.54
  Q 864.01 358.43 850.76 358.47
  C 837.24 358.52 828.15 347.79 827.47 335.23
  C 827.36 333.28 826.74 332.67 824.72 332.69
  Q 801.25 333.01 777.78 333.04
  C 775.40 333.04 772.85 332.70 770.50 333.57
  Q 770.00 333.75 770.00 334.28
  L 770.00 441.71
  Q 770.00 442.18 770.39 442.44
  Q 771.82 443.40 773.57 443.41
  Q 800.00 443.53 825.91 443.50
  A 1.68 1.67 -88.7 0 0 827.58 441.89
  C 828.00 430.72 835.11 418.91 847.13 418.51
  Q 864.33 417.94 881.50 418.38
  Q 886.90 418.52 890.14 419.95
  C 907.50 427.64 904.19 451.19 903.75 467.26
  C 903.45 478.02 899.24 487.53 889.11 491.51
  Q 884.91 493.16 873.81 493.23
  C 865.72 493.28 856.64 493.93 848.66 492.92
  C 846.37 492.64 843.98 492.51 841.91 491.55
  Q 828.06 485.06 827.50 468.94
  A 0.98 0.98 0.0 0 0 826.52 468.00
  L 771.25 468.00
  A 1.25 1.25 0.0 0 0 770.00 469.25
  L 770.00 576.77
  A 1.03 1.03 0.0 0 0 770.98 577.80
  C 789.26 578.59 807.64 578.29 825.95 578.27
  A 1.52 1.51 3.9 0 0 827.45 576.97
  C 828.88 566.29 831.92 558.30 842.45 554.18
  Q 846.21 552.71 853.25 552.60
  Q 864.35 552.43 875.45 552.47
  Q 883.64 552.50 887.89 553.97
  Q 897.40 557.27 901.32 566.18
  C 905.31 575.24 904.33 591.32 903.73 602.23
  C 903.09 613.77 898.99 623.10 887.68 626.85
  Q 883.34 628.29 873.18 628.26
  C 852.47 628.20 829.52 631.95 827.40 603.59
  Q 827.31 602.50 826.22 602.50
  L 772.50 602.50
  A 2.63 2.63 0.0 0 0 769.88 605.31
  C 770.41 613.35 770.70 623.95 767.28 631.37
  C 762.05 642.74 751.94 649.12 739.39 649.38
  Q 730.15 649.57 720.72 649.80
  A 1.86 1.86 0.0 0 0 718.91 651.73
  C 719.23 660.69 720.14 673.25 716.97 681.76
  Q 710.98 697.79 695.02 703.64
  C 687.08 706.55 675.92 705.98 667.50 705.72
  Q 665.27 705.65 663.39 706.22
  Q 662.85 706.38 662.88 706.95
  C 663.29 715.98 664.21 729.54 660.53 737.90
  Q 655.34 749.68 643.50 754.49
  C 637.17 757.06 625.09 757.45 619.26 756.74
  Q 616.38 756.39 616.32 758.74
  Q 615.66 786.11 616.25 812.93
  Q 616.28 814.07 617.41 814.16
  Q 635.54 815.68 640.10 830.21
  Q 641.52 834.76 641.49 846.92
  C 641.45 863.45 644.83 882.74 625.62 888.88
  C 616.57 891.77 602.33 890.16 592.24 890.08
  Q 565.95 889.87 565.86 863.49
  C 565.79 842.23 560.95 815.93 590.73 814.21
  A 0.83 0.83 0.0 0 0 591.52 813.38
  L 591.46 758.26
  A 1.45 1.45 0.0 0 0 590.03 756.81
  Q 537.86 756.13 485.75 756.72
  Q 483.68 756.74 482.28 757.14
  Q 481.28 757.43 481.28 758.48
  L 481.19 813.27
  Q 481.19 813.76 481.66 813.92
  C 483.86 814.67 486.83 814.64 488.54 815.05
  C 499.04 817.58 505.92 825.34 506.50 836.14
  Q 507.53 855.52 506.77 867.51
  Q 505.72 883.94 491.91 888.62
  Q 487.26 890.19 476.76 890.27
  C 458.94 890.39 439.42 893.53 432.69 875.09
  Q 431.49 871.79 431.49 866.77
  Q 431.52 852.71 431.49 838.68
  C 431.47 825.83 438.82 816.20 452.08 814.62
  Q 454.06 814.39 456.08 814.03
  A 0.81 0.81 0.0 0 0 456.74 813.25
  Q 456.79 786.37 456.72 759.56
  C 456.71 757.45 455.91 756.85 453.86 756.82
  Q 402.19 756.13 350.52 756.79
  C 349.48 756.81 347.94 756.42 346.89 757.24
  Q 346.50 757.54 346.50 758.03
  L 346.50 813.72
  A 0.56 0.56 0.0 0 0 347.05 814.28
  C 360.63 814.67 371.87 823.09 371.78 837.14
  Q 371.71 848.04 371.93 858.92
  Q 372.14 869.07 370.94 873.50
  Q 366.52 889.81 347.19 890.21
  Q 341.45 890.33 320.76 890.23
  C 308.60 890.17 296.57 881.43 296.53 868.44
  Q 296.49 854.22 296.50 840.00
  Q 296.50 818.05 317.52 814.55
  C 318.60 814.37 320.11 814.76 321.45 813.88
  Q 321.88 813.60 321.88 813.09
  Q 322.26 786.79 321.72 760.51
  C 321.69 759.02 322.34 756.29 319.75 756.43
  C 312.09 756.83 303.18 757.42 296.25 755.09
  Q 282.61 750.50 277.07 737.06
  C 273.82 729.16 274.77 716.96 275.06 708.49
  Q 275.15 705.81 272.45 705.86
  Q 262.51 706.08 252.62 705.46
  C 234.16 704.31 220.19 690.17 219.10 671.76
  Q 218.53 662.08 218.80 651.81
  A 1.80 1.80 0.0 0 0 216.95 649.96
  Q 208.23 650.19 199.00 649.63
  C 184.33 648.76 173.06 641.20 169.05 626.67
  C 167.31 620.34 168.08 611.83 167.90 604.79
  A 2.35 2.34 89.2 0 0 165.56 602.50
  L 111.31 602.50
  A 0.91 0.91 0.0 0 0 110.40 603.37
  C 109.66 621.06 98.97 628.39 82.72 628.25
  C 61.18 628.08 36.91 632.86 34.10 604.04
  Q 33.24 595.23 34.32 577.45
  C 35.01 566.13 39.70 557.27 50.94 553.67
  Q 54.74 552.46 61.66 552.57
  C 68.91 552.70 76.10 552.82 83.34 552.59
  C 100.46 552.05 108.82 560.83 110.34 577.31
  Q 110.40 577.87 110.95 577.97
  Q 112.09 578.18 114.00 578.20
  Q 139.78 578.43 165.79 578.04
  A 2.29 2.29 0.0 0 0 168.05 575.74
  L 167.68 469.22
  A 1.22 1.21 89.8 0 0 166.47 468.01
  L 111.52 467.98
  A 1.01 1.00 -87.5 0 0 110.52 468.90
  C 109.62 479.44 105.47 487.97 95.70 491.56
  Q 91.27 493.19 79.99 493.24
  C 72.09 493.27 63.27 493.91 55.48 492.90
  C 29.59 489.53 33.93 463.45 34.33 443.49
  C 34.54 433.11 38.87 423.54 48.67 419.80
  C 56.07 416.98 70.33 418.24 79.72 418.25
  Q 91.94 418.25 96.13 419.85
  C 106.38 423.75 108.89 432.59 110.61 442.95
  Q 110.69 443.48 111.23 443.48
  Q 136.54 443.56 161.80 443.45
  C 165.38 443.43 167.99 443.97 167.99 439.76
  Q 168.08 386.65 167.66 334.26
  A 1.45 1.45 0.0 0 0 166.21 332.82
  L 111.35 332.72
  A 0.91 0.90 0.6 0 0 110.44 333.60
  C 110.02 347.60 101.45 358.18 87.25 358.37
  Q 73.94 358.55 60.64 358.55
  Q 54.28 358.54 50.49 357.24
  C 29.82 350.11 33.98 326.82 34.06 309.75
  C 34.15 291.83 43.97 283.20 61.31 283.06
  C 81.51 282.89 108.47 277.84 110.37 306.96
  Q 110.46 308.25 111.76 308.25
  L 165.93 308.25
  A 2.02 2.02 0.0 0 0 167.95 306.24
  C 168.07 292.80 166.53 280.91 176.95 270.45
  C 187.79 259.56 202.00 261.73 215.95 261.71
  Q 219.04 261.71 219.04 258.50
  C 219.04 250.06 218.26 239.96 220.02 232.59
  C 223.05 219.89 233.27 209.25 246.36 206.46
  C 254.48 204.72 264.78 205.84 273.25 205.58
  A 1.77 1.76 -0.3 0 0 274.97 203.85
  C 275.09 196.12 274.36 186.67 275.55 180.10
  C 278.18 165.57 289.45 154.99 304.66 154.61
  Q 312.60 154.40 320.61 154.53
  A 1.35 1.35 0.0 0 0 321.98 153.18
  L 321.89 97.29
  A 0.72 0.72 0.0 0 0 321.16 96.57
  C 310.88 96.75 301.57 91.29 298.02 81.64
  Q 296.56 77.67 296.53 67.06
  Q 296.50 56.67 296.53 46.26
  C 296.58 28.90 306.95 20.85 323.04 20.77
  C 333.23 20.71 348.19 19.29 356.87 22.36
  C 366.51 25.76 371.84 34.10 371.78 44.39
  Q 371.69 58.88 371.78 73.34
  C 371.88 87.38 361.58 96.03 347.77 96.65
  Q 346.50 96.71 346.50 97.98
  L 346.50 153.79
  Q 346.50 154.47 347.18 154.48
  Z
  M 347.0216 46.2623
  A 0.29 0.29 0.0 0 0 346.7321 45.9718
  L 321.8121 45.9283
  A 0.29 0.29 0.0 0 0 321.5216 46.2178
  L 321.4784 70.9377
  A 0.29 0.29 0.0 0 0 321.7679 71.2282
  L 346.6879 71.2717
  A 0.29 0.29 0.0 0 0 346.9784 70.9822
  L 347.0216 46.2623
  Z
  M 616.5216 46.2423
  A 0.27 0.27 0.0 0 0 616.2521 45.9718
  L 591.2921 45.9282
  A 0.27 0.27 0.0 0 0 591.0216 46.1978
  L 590.9784 70.9577
  A 0.27 0.27 0.0 0 0 591.2479 71.2282
  L 616.2079 71.2718
  A 0.27 0.27 0.0 0 0 616.4784 71.0022
  L 616.5216 46.2423
  Z
  M 481.5815 46.2921
  A 0.27 0.27 0.0 0 0 481.3120 46.0216
  L 456.5320 45.9784
  A 0.27 0.27 0.0 0 0 456.2616 46.2479
  L 456.2185 70.9479
  A 0.27 0.27 0.0 0 0 456.4880 71.2184
  L 481.2680 71.2616
  A 0.27 0.27 0.0 0 0 481.5384 70.9921
  L 481.5815 46.2921
  Z
  M 637.76 185.59
  C 637.56 179.63 634.16 179.48 629.25 179.48
  Q 469.97 179.24 310.69 179.27
  C 302.22 179.27 300.00 179.86 299.99 189.18
  Q 299.98 196.67 300.01 204.26
  Q 300.02 204.75 300.51 204.75
  L 637.50 204.75
  A 0.51 0.51 0.0 0 0 638.01 204.25
  Q 638.07 194.88 637.76 185.59
  Z
  M 218.50 385.89
  C 218.49 367.11 243.75 366.70 243.75 386.24
  Q 243.75 526.71 243.68 667.19
  Q 243.68 680.81 257.50 680.79
  Q 370.14 680.66 482.78 680.43
  Q 483.17 680.43 483.50 680.65
  Q 483.72 680.79 484.00 680.79
  Q 582.47 680.78 680.93 680.72
  C 691.21 680.72 694.00 675.29 694.00 665.99
  Q 694.00 455.80 694.00 245.62
  C 694.00 236.88 692.10 230.25 682.25 230.25
  Q 471.47 230.25 260.68 230.25
  C 250.62 230.25 243.81 231.61 243.79 243.08
  Q 243.72 281.90 243.74 320.72
  Q 243.75 326.28 242.46 328.94
  C 238.23 337.62 225.31 338.24 220.47 329.67
  Q 218.48 326.16 218.49 321.25
  Q 218.56 304.11 218.47 286.96
  Q 218.47 286.46 217.96 286.46
  Q 209.47 286.54 200.96 286.50
  C 196.32 286.47 193.01 287.61 193.00 292.75
  Q 192.99 454.57 193.01 616.39
  C 193.01 620.36 193.92 624.15 198.32 624.43
  Q 202.47 624.69 217.97 624.43
  Q 218.46 624.42 218.46 623.93
  Q 218.52 504.90 218.50 385.89
  Z
  M 719.50 287.02
  L 719.50 623.98
  Q 719.50 624.44 719.96 624.44
  Q 728.74 624.56 737.49 624.68
  Q 745.00 624.78 745.00 617.50
  Q 745.01 455.03 744.99 292.56
  C 744.99 287.63 741.51 286.52 737.10 286.50
  Q 728.54 286.46 720.00 286.52
  Q 719.50 286.52 719.50 287.02
  Z
  M 85.0116 308.2620
  A 0.26 0.26 0.0 0 0 84.7521 308.0016
  L 60.0321 307.9584
  A 0.26 0.26 0.0 0 0 59.7716 308.2180
  L 59.7284 332.9980
  A 0.26 0.26 0.0 0 0 59.9879 333.2584
  L 84.7079 333.3016
  A 0.26 0.26 0.0 0 0 84.9684 333.0420
  L 85.0116 308.2620
  Z
  M 878.2716 308.2723
  A 0.27 0.27 0.0 0 0 878.0021 308.0018
  L 853.0421 307.9582
  A 0.27 0.27 0.0 0 0 852.7716 308.2278
  L 852.7284 332.9877
  A 0.27 0.27 0.0 0 0 852.9979 333.2582
  L 877.9579 333.3018
  A 0.27 0.27 0.0 0 0 878.2284 333.0322
  L 878.2716 308.2723
  Z
  M 85.00 443.00
  A 0.27 0.27 0.0 0 0 84.73 442.73
  L 60.03 442.73
  A 0.27 0.27 0.0 0 0 59.76 443.00
  L 59.76 467.98
  A 0.27 0.27 0.0 0 0 60.03 468.25
  L 84.73 468.25
  A 0.27 0.27 0.0 0 0 85.00 467.98
  L 85.00 443.00
  Z
  M 878.2284 443.1078
  A 0.39 0.39 0.0 0 0 877.8377 442.7185
  L 853.1378 442.7616
  A 0.39 0.39 0.0 0 0 852.7484 443.1523
  L 852.7916 467.8722
  A 0.39 0.39 0.0 0 0 853.1823 468.2615
  L 877.8822 468.2184
  A 0.39 0.39 0.0 0 0 878.2716 467.8277
  L 878.2284 443.1078
  Z
  M 84.9682 577.7380
  A 0.26 0.26 0.0 0 0 84.7077 577.4784
  L 59.9878 577.5216
  A 0.26 0.26 0.0 0 0 59.7282 577.7820
  L 59.7718 602.7620
  A 0.26 0.26 0.0 0 0 60.0323 603.0216
  L 84.7522 602.9784
  A 0.26 0.26 0.0 0 0 85.0118 602.7180
  L 84.9682 577.7380
  Z
  M 878.25 578.01
  A 0.51 0.51 0.0 0 0 877.74 577.50
  L 853.26 577.50
  A 0.51 0.51 0.0 0 0 852.75 578.01
  L 852.75 602.49
  A 0.51 0.51 0.0 0 0 853.26 603.00
  L 877.74 603.00
  A 0.51 0.51 0.0 0 0 878.25 602.49
  L 878.25 578.01
  Z
  M 300.02 723.32
  C 300.12 734.26 308.25 731.50 315.34 731.50
  Q 473.21 731.50 631.08 731.50
  C 635.59 731.50 637.74 729.35 637.88 724.72
  Q 638.15 715.77 637.95 706.71
  Q 637.94 706.25 637.48 706.25
  L 300.51 706.25
  Q 300.03 706.25 300.03 706.73
  Q 299.94 715.08 300.02 723.32
  Z
  M 347.00 839.94
  A 0.44 0.44 0.0 0 0 346.56 839.50
  L 321.94 839.50
  A 0.44 0.44 0.0 0 0 321.50 839.94
  L 321.50 864.56
  A 0.44 0.44 0.0 0 0 321.94 865.00
  L 346.56 865.00
  A 0.44 0.44 0.0 0 0 347.00 864.56
  L 347.00 839.94
  Z
  M 481.7816 840.3446
  A 0.79 0.79 0.0 0 0 480.9944 839.5518
  L 457.0745 839.4683
  A 0.79 0.79 0.0 0 0 456.2818 840.2556
  L 456.1984 864.1554
  A 0.79 0.79 0.0 0 0 456.9856 864.9482
  L 480.9055 865.0317
  A 0.79 0.79 0.0 0 0 481.6982 864.2444
  L 481.7816 840.3446
  Z
  M 616.5324 840.1346
  A 0.56 0.56 0.0 0 0 615.9744 839.5726
  L 591.5945 839.4875
  A 0.56 0.56 0.0 0 0 591.0326 840.0456
  L 590.9476 864.3854
  A 0.56 0.56 0.0 0 0 591.5056 864.9474
  L 615.8855 865.0325
  A 0.56 0.56 0.0 0 0 616.4474 864.4744
  L 616.5324 840.1346
  Z"
/>
<rect fill="#f8fafb" x="-12.75" y="-12.65" transform="translate(334.25,58.60) rotate(0.1)" width="25.50" height="25.30" rx="0.29"/>
<rect fill="#f8fafb" x="-12.75" y="-12.65" transform="translate(603.75,58.60) rotate(0.1)" width="25.50" height="25.30" rx="0.27"/>
<rect fill="#f8fafb" x="-12.66" y="-12.62" transform="translate(468.90,58.62) rotate(0.1)" width="25.32" height="25.24" rx="0.27"/>
<path fill="#f8fafb" d="
  M 629.25 179.48
  C 634.16 179.48 637.56 179.63 637.76 185.59
  Q 638.07 194.88 638.01 204.25
  A 0.51 0.51 0.0 0 1 637.50 204.75
  L 300.51 204.75
  Q 300.02 204.75 300.01 204.26
  Q 299.98 196.67 299.99 189.18
  C 300.00 179.86 302.22 179.27 310.69 179.27
  Q 469.97 179.24 629.25 179.48
  Z"
/>
<path fill="#f8fafb" d="
  M 243.75 386.24
  C 243.75 366.70 218.49 367.11 218.50 385.89
  Q 218.52 504.90 218.46 623.93
  Q 218.46 624.42 217.97 624.43
  Q 202.47 624.69 198.32 624.43
  C 193.92 624.15 193.01 620.36 193.01 616.39
  Q 192.99 454.57 193.00 292.75
  C 193.01 287.61 196.32 286.47 200.96 286.50
  Q 209.47 286.54 217.96 286.46
  Q 218.47 286.46 218.47 286.96
  Q 218.56 304.11 218.49 321.25
  Q 218.48 326.16 220.47 329.67
  C 225.31 338.24 238.23 337.62 242.46 328.94
  Q 243.75 326.28 243.74 320.72
  Q 243.72 281.90 243.79 243.08
  C 243.81 231.61 250.62 230.25 260.68 230.25
  Q 471.47 230.25 682.25 230.25
  C 692.10 230.25 694.00 236.88 694.00 245.62
  Q 694.00 455.80 694.00 665.99
  C 694.00 675.29 691.21 680.72 680.93 680.72
  Q 582.47 680.78 484.00 680.79
  Q 483.72 680.79 483.50 680.65
  Q 483.17 680.43 482.78 680.43
  Q 370.14 680.66 257.50 680.79
  Q 243.68 680.81 243.68 667.19
  Q 243.75 526.71 243.75 386.24
  Z
  M 294.96 320.06
  C 295.00 297.94 311.62 281.28 333.75 281.28
  Q 466.07 281.24 598.39 281.26
  Q 610.00 281.26 614.86 282.55
  C 627.48 285.88 637.96 296.18 641.47 308.64
  Q 642.99 314.03 643.00 328.50
  Q 643.01 457.70 642.99 586.89
  Q 642.99 596.88 641.57 601.84
  C 637.09 617.51 623.27 628.69 606.76 629.47
  C 601.10 629.73 591.54 628.72 586.74 630.81
  C 574.79 636.02 578.40 654.54 591.50 654.98
  C 597.94 655.20 607.58 655.31 614.39 654.29
  C 646.25 649.52 668.50 622.35 668.50 590.50
  Q 668.52 459.16 668.48 327.81
  Q 668.48 313.76 667.44 307.88
  C 662.68 280.82 640.58 260.33 613.96 256.53
  Q 608.38 255.74 594.00 255.74
  Q 467.40 255.76 340.80 255.76
  Q 327.24 255.76 320.89 256.95
  C 291.93 262.42 269.51 288.75 269.50 318.00
  Q 269.49 451.82 269.51 585.63
  Q 269.51 598.61 270.93 605.13
  C 276.11 629.04 294.96 648.01 318.91 653.46
  C 325.94 655.06 333.94 655.17 341.50 655.18
  Q 425.28 655.30 509.06 655.21
  Q 520.06 655.19 526.77 655.05
  Q 531.28 654.96 533.62 653.99
  C 543.75 649.80 544.06 635.72 534.25 631.01
  Q 531.58 629.74 526.88 629.74
  Q 431.47 629.79 336.07 629.70
  C 311.87 629.68 294.79 613.96 294.78 589.50
  Q 294.71 454.78 294.96 320.06
  Z
  M 518.59 449.39
  Q 532.40 476.13 545.89 503.02
  Q 548.62 508.46 554.74 508.46
  C 560.08 508.45 562.84 506.15 565.08 501.21
  C 573.18 483.34 579.40 464.21 586.34 445.83
  A 0.25 0.25 0.0 0 1 586.82 445.86
  Q 593.55 474.80 596.77 504.26
  C 598.74 522.17 618.98 517.30 617.06 501.42
  Q 611.65 456.79 599.58 413.48
  C 595.69 399.54 581.98 400.38 577.26 413.22
  Q 566.04 443.74 554.09 474.03
  Q 553.86 474.62 553.54 474.07
  C 542.30 454.21 532.69 432.82 522.35 412.44
  C 519.64 407.11 514.65 402.17 508.30 404.37
  C 502.56 406.35 501.08 411.65 500.57 417.31
  Q 497.21 454.30 493.46 491.25
  C 492.88 496.91 491.18 506.27 493.47 510.92
  C 497.96 520.04 510.99 516.27 512.75 506.98
  C 514.63 497.11 515.13 482.13 515.76 474.90
  Q 516.87 462.19 518.07 449.49
  Q 518.16 448.54 518.59 449.39
  Z
  M 351.66 493.75
  A 0.40 0.40 0.0 0 1 351.26 493.34
  Q 351.68 453.75 351.45 414.22
  C 351.39 402.59 333.93 400.99 332.02 411.50
  Q 330.98 417.22 330.92 425.50
  Q 330.64 461.69 330.76 497.89
  C 330.78 504.08 331.88 512.65 339.02 514.18
  Q 339.68 514.33 348.52 514.25
  Q 369.61 514.09 390.68 513.91
  C 402.48 513.81 408.04 500.36 396.40 494.00
  Q 394.40 492.92 391.39 493.03
  Q 371.50 493.78 351.66 493.75
  Z
  M 434.72 493.75
  A 0.44 0.44 0.0 0 1 434.28 493.31
  Q 434.67 453.78 434.46 414.51
  C 434.39 402.25 416.34 400.71 414.85 412.57
  Q 414.00 419.38 413.94 426.25
  C 413.76 448.00 414.06 469.80 413.59 491.53
  C 413.45 497.74 413.24 510.29 419.91 513.43
  Q 422.12 514.47 427.87 514.36
  Q 450.65 513.92 473.43 513.75
  C 490.52 513.62 488.74 492.52 473.89 493.06
  Q 454.26 493.77 434.72 493.75
  Z"
/>
<path fill="#000000" d="
  M 333.75 281.28
  C 311.62 281.28 295.00 297.94 294.96 320.06
  Q 294.71 454.78 294.78 589.50
  C 294.79 613.96 311.87 629.68 336.07 629.70
  Q 431.47 629.79 526.88 629.74
  Q 531.58 629.74 534.25 631.01
  C 544.06 635.72 543.75 649.80 533.62 653.99
  Q 531.28 654.96 526.77 655.05
  Q 520.06 655.19 509.06 655.21
  Q 425.28 655.30 341.50 655.18
  C 333.94 655.17 325.94 655.06 318.91 653.46
  C 294.96 648.01 276.11 629.04 270.93 605.13
  Q 269.51 598.61 269.51 585.63
  Q 269.49 451.82 269.50 318.00
  C 269.51 288.75 291.93 262.42 320.89 256.95
  Q 327.24 255.76 340.80 255.76
  Q 467.40 255.76 594.00 255.74
  Q 608.38 255.74 613.96 256.53
  C 640.58 260.33 662.68 280.82 667.44 307.88
  Q 668.48 313.76 668.48 327.81
  Q 668.52 459.16 668.50 590.50
  C 668.50 622.35 646.25 649.52 614.39 654.29
  C 607.58 655.31 597.94 655.20 591.50 654.98
  C 578.40 654.54 574.79 636.02 586.74 630.81
  C 591.54 628.72 601.10 629.73 606.76 629.47
  C 623.27 628.69 637.09 617.51 641.57 601.84
  Q 642.99 596.88 642.99 586.89
  Q 643.01 457.70 643.00 328.50
  Q 642.99 314.03 641.47 308.64
  C 637.96 296.18 627.48 285.88 614.86 282.55
  Q 610.00 281.26 598.39 281.26
  Q 466.07 281.24 333.75 281.28
  Z"
/>
<path fill="#f8fafb" d="
  M 720.00 286.52
  Q 728.54 286.46 737.10 286.50
  C 741.51 286.52 744.99 287.63 744.99 292.56
  Q 745.01 455.03 745.00 617.50
  Q 745.00 624.78 737.49 624.68
  Q 728.74 624.56 719.96 624.44
  Q 719.50 624.44 719.50 623.98
  L 719.50 287.02
  Q 719.50 286.52 720.00 286.52
  Z"
/>
<rect fill="#f8fafb" x="-12.62" y="-12.65" transform="translate(72.37,320.63) rotate(0.1)" width="25.24" height="25.30" rx="0.26"/>
<rect fill="#f8fafb" x="-12.75" y="-12.65" transform="translate(865.50,320.63) rotate(0.1)" width="25.50" height="25.30" rx="0.27"/>
<path fill="#000000" d="
  M 518.07 449.49
  Q 516.87 462.19 515.76 474.90
  C 515.13 482.13 514.63 497.11 512.75 506.98
  C 510.99 516.27 497.96 520.04 493.47 510.92
  C 491.18 506.27 492.88 496.91 493.46 491.25
  Q 497.21 454.30 500.57 417.31
  C 501.08 411.65 502.56 406.35 508.30 404.37
  C 514.65 402.17 519.64 407.11 522.35 412.44
  C 532.69 432.82 542.30 454.21 553.54 474.07
  Q 553.86 474.62 554.09 474.03
  Q 566.04 443.74 577.26 413.22
  C 581.98 400.38 595.69 399.54 599.58 413.48
  Q 611.65 456.79 617.06 501.42
  C 618.98 517.30 598.74 522.17 596.77 504.26
  Q 593.55 474.80 586.82 445.86
  A 0.25 0.25 0.0 0 0 586.34 445.83
  C 579.40 464.21 573.18 483.34 565.08 501.21
  C 562.84 506.15 560.08 508.45 554.74 508.46
  Q 548.62 508.46 545.89 503.02
  Q 532.40 476.13 518.59 449.39
  Q 518.16 448.54 518.07 449.49
  Z"
/>
<path fill="#000000" d="
  M 351.66 493.75
  Q 371.50 493.78 391.39 493.03
  Q 394.40 492.92 396.40 494.00
  C 408.04 500.36 402.48 513.81 390.68 513.91
  Q 369.61 514.09 348.52 514.25
  Q 339.68 514.33 339.02 514.18
  C 331.88 512.65 330.78 504.08 330.76 497.89
  Q 330.64 461.69 330.92 425.50
  Q 330.98 417.22 332.02 411.50
  C 333.93 400.99 351.39 402.59 351.45 414.22
  Q 351.68 453.75 351.26 493.34
  A 0.40 0.40 0.0 0 0 351.66 493.75
  Z"
/>
<path fill="#000000" d="
  M 434.72 493.75
  Q 454.26 493.77 473.89 493.06
  C 488.74 492.52 490.52 513.62 473.43 513.75
  Q 450.65 513.92 427.87 514.36
  Q 422.12 514.47 419.91 513.43
  C 413.24 510.29 413.45 497.74 413.59 491.53
  C 414.06 469.80 413.76 448.00 413.94 426.25
  Q 414.00 419.38 414.85 412.57
  C 416.34 400.71 434.39 402.25 434.46 414.51
  Q 434.67 453.78 434.28 493.31
  A 0.44 0.44 0.0 0 0 434.72 493.75
  Z"
/>
<rect fill="#f8fafb" x="59.76" y="442.73" width="25.24" height="25.52" rx="0.27"/>
<rect fill="#f8fafb" x="-12.74" y="-12.75" transform="translate(865.51,455.49) rotate(-0.1)" width="25.48" height="25.50" rx="0.39"/>
<rect fill="#f8fafb" x="-12.62" y="-12.75" transform="translate(72.37,590.25) rotate(-0.1)" width="25.24" height="25.50" rx="0.26"/>
<rect fill="#f8fafb" x="852.75" y="577.50" width="25.50" height="25.50" rx="0.51"/>
<path fill="#f8fafb" d="
  M 315.34 731.50
  C 308.25 731.50 300.12 734.26 300.02 723.32
  Q 299.94 715.08 300.03 706.73
  Q 300.03 706.25 300.51 706.25
  L 637.48 706.25
  Q 637.94 706.25 637.95 706.71
  Q 638.15 715.77 637.88 724.72
  C 637.74 729.35 635.59 731.50 631.08 731.50
  Q 473.21 731.50 315.34 731.50
  Z"
/>
<rect fill="#f8fafb" x="321.50" y="839.50" width="25.50" height="25.50" rx="0.44"/>
<rect fill="#f8fafb" x="-12.75" y="-12.74" transform="translate(468.99,852.25) rotate(0.2)" width="25.50" height="25.48" rx="0.79"/>
<rect fill="#f8fafb" x="-12.75" y="-12.73" transform="translate(603.74,852.26) rotate(0.2)" width="25.50" height="25.46" rx="0.56"/>
</svg>
