<?xml version="1.0" encoding="UTF-8" standalone="no"?>
<svg
   version="1.1"
   viewBox="0.00 0.00 512.00 512.00"
   id="svg1443"
   sodipodi:docname="colored_ai_final.svg"
   inkscape:version="1.2.2 (b0a84865, 2022-12-01)"
   xmlns:inkscape="http://www.inkscape.org/namespaces/inkscape"
   xmlns:sodipodi="http://sodipodi.sourceforge.net/DTD/sodipodi-0.dtd"
   xmlns="http://www.w3.org/2000/svg"
   xmlns:svg="http://www.w3.org/2000/svg">
  <defs
     id="defs1447" />
  <sodipodi:namedview
     id="namedview1445"
     pagecolor="#ffffff"
     bordercolor="#000000"
     borderopacity="0.25"
     inkscape:showpageshadow="2"
     inkscape:pageopacity="0.0"
     inkscape:pagecheckerboard="0"
     inkscape:deskcolor="#d1d1d1"
     showgrid="false"
     inkscape:zoom="1.1427163"
     inkscape:cx="191.21106"
     inkscape:cy="279.1594"
     inkscape:window-width="1470"
     inkscape:window-height="820"
     inkscape:window-x="0"
     inkscape:window-y="37"
     inkscape:window-maximized="1"
     inkscape:current-layer="svg1443" />
  <path
     fill="#ffe07d"
     d="   M 164.06 0.00   L 184.56 0.00   C 188.92 1.33 189.76 4.18 189.75 8.65   C 189.74 13.12 190.90 24.87 188.38 28.31   Q 186.24 31.23 181.71 31.25   Q 174.22 30.34 166.74 31.60   Q 166.82 31.46 166.76 31.28   Q 166.64 30.94 166.28 30.94   C 159.49 31.07 158.77 26.74 158.76 20.92   C 158.74 14.76 156.30 2.27 164.06 0.00   Z"
     id="path1369" />
  <path
     fill="#ffe07d"
     d="   M 245.81 0.00   L 266.06 0.00   Q 271.49 1.53 271.49 7.76   Q 271.49 15.61 271.39 23.52   Q 271.29 31.19 263.50 31.04   L 248.50 31.04   Q 240.67 31.23 240.59 23.51   Q 240.51 15.97 240.53 8.44   C 240.54 4.04 241.45 1.17 245.81 0.00   Z"
     id="path1371" />
  <path
     fill="#ffe07d"
     d="   M 327.56 0.00   L 348.06 0.00   Q 353.17 1.55 353.21 6.06   Q 353.28 14.53 353.33 23.00   Q 353.37 31.10 345.25 31.04   L 331.43 31.06   Q 331.11 31.06 330.90 31.31   Q 330.77 31.46 330.69 31.57   Q 330.62 31.65 330.56 31.57   L 330.29 31.25   Q 325.74 31.26 323.61 28.33   C 321.06 24.84 322.26 12.10 322.25 7.52   Q 322.24 1.49 327.56 0.00   Z"
     id="path1373" />
  <path
     fill="#ffd064"
     d="   M 181.71 31.25   L 181.74 80.85   L 166.75 80.79   L 166.74 31.60   Q 174.22 30.34 181.71 31.25   Z"
     id="path1375" />
  <path
     fill="#ffd064"
     d="   M 263.50 31.04   L 263.47 80.77   L 248.48 80.59   L 248.50 31.04   L 263.50 31.04   Z"
     id="path1377" />
  <path
     fill="#ffd064"
     d="   M 345.25 31.04   L 345.25 80.71   L 330.21 80.50   L 330.29 31.25   L 330.56 31.57   Q 330.62 31.65 330.69 31.57   Q 330.77 31.46 330.90 31.31   Q 331.11 31.06 331.43 31.06   L 345.25 31.04   Z"
     id="path1379" />
  <path
     fill="#756e78"
     d="   M 248.48 80.59   L 263.47 80.77   L 329.25 80.79   Q 330.91 83.45 333.17 85.55   C 336.64 88.78 335.23 106.76 335.00 111.71   L 145.75 111.71   Q 145.75 102.10 145.75 92.50   C 145.76 80.00 158.18 80.63 166.75 80.79   L 181.74 80.85   Q 212.46 81.06 243.16 80.70   C 244.63 80.68 246.57 81.51 248.48 80.59   Z"
     id="path1381" />
  <path
     fill="#665e66"
     d="   M 330.21 80.50   L 345.25 80.71   C 355.11 81.00 365.94 79.30 366.45 93.02   Q 366.63 97.87 366.46 111.50   L 358.39 111.84   L 335.00 111.71   C 335.23 106.76 336.64 88.78 333.17 85.55   Q 330.91 83.45 329.25 80.79   L 330.21 80.50   Z"
     id="path1383" />
  <path
     fill="#5490f9"
     d="   M 366.46 111.50   C 376.96 112.02 392.65 108.56 398.53 119.14   C 401.83 125.08 400.66 139.11 400.54 146.00   L 400.29 366.50   C 400.73 373.33 401.83 387.86 398.06 393.68   C 391.89 403.23 376.75 399.98 366.50 400.54   L 358.75 400.29   L 359.59 400.24   Q 359.76 400.23 359.68 400.07   L 359.55 399.84   Q 359.35 399.47 359.75 399.31   Q 368.53 395.80 369.22 387.19   Q 370.04 376.77 368.87 345.49   C 368.62 343.55 369.25 341.56 369.25 339.84   Q 369.31 254.04 369.17 168.27   Q 369.50 149.13 369.28 130.02   Q 369.19 123.04 367.67 119.88   Q 364.97 114.29 358.39 111.84   L 366.46 111.50   Z"
     id="path1385" />
  <path
     fill="#61a2f9"
     d="   M 145.75 111.71   L 335.00 111.71   L 358.39 111.84   Q 364.97 114.29 367.67 119.88   Q 369.19 123.04 369.28 130.02   Q 369.50 149.13 369.17 168.27   C 364.67 150.72 352.58 142.74 335.27 142.74   Q 256.48 142.75 177.70 142.76   Q 168.53 142.76 164.09 144.18   C 154.57 147.22 146.74 155.13 143.98 164.73   Q 142.74 169.03 142.75 179.40   Q 142.77 257.46 142.73 335.52   C 142.72 351.19 149.69 363.53 165.19 367.96   Q 169.88 369.29 178.44 369.28   Q 256.62 369.21 334.79 369.27   Q 342.66 369.27 347.05 367.96   Q 363.27 363.12 368.87 345.49   Q 370.04 376.77 369.22 387.19   Q 368.53 395.80 359.75 399.31   Q 359.35 399.47 359.55 399.84   L 359.68 400.07   Q 359.76 400.23 359.59 400.24   L 358.75 400.29   L 335.72 400.27   L 145.50 400.29   C 138.07 400.22 126.33 401.45 120.30 398.87   C 108.51 393.81 111.81 376.67 111.71 366.50   L 111.71 145.75   C 111.80 135.56 108.51 118.31 120.17 113.19   C 126.27 110.52 138.29 111.76 145.75 111.71   Z"
     id="path1387" />
  <path
     fill="#756e78"
     d="   M 111.71 145.75   L 111.71 366.50   Q 103.59 366.13 95.48 366.21   C 80.11 366.38 81.00 357.52 80.75 345.29   L 80.82 330.22   L 80.70 263.52   L 80.78 248.53   L 80.64 181.77   L 80.63 166.78   Q 81.11 162.61 81.08 158.38   C 81.03 150.57 85.18 145.67 93.50 145.71   Q 102.60 145.76 111.71 145.75   Z"
     id="path1391" />
  <path
     fill="#665e66"
     d="   M 431.29 166.75   L 431.09 181.56   Q 431.09 181.71 431.23 181.74   Q 431.36 181.78 431.50 181.79   Q 431.44 181.92 431.28 181.99   Q 431.09 182.09 431.09 182.30   L 431.20 248.50   L 431.29 263.50   Q 430.57 296.84 431.29 330.23   C 430.73 330.72 431.24 331.34 431.21 331.93   Q 430.89 338.60 431.60 345.21   Q 430.79 349.15 430.89 353.34   C 431.07 361.07 427.03 366.32 418.74 366.28   Q 405.82 366.22 400.29 366.50   L 400.54 146.00   Q 409.89 145.55 419.25 145.83   Q 427.24 146.07 430.05 152.48   C 431.72 156.27 430.85 162.18 431.29 166.75   Z"
     id="path1393" />
  <path
     fill="#ffe07d"
     d="   M 31.38 166.80   L 31.04 181.75   C 31.33 188.46 27.34 189.78 21.37 189.77   Q 14.74 189.75 8.12 189.73   C 3.83 189.71 1.04 188.71 0.00 184.44   L 0.00 164.19   Q 1.51 158.76 7.75 158.76   Q 15.62 158.75 23.50 158.74   Q 31.06 158.72 31.38 166.80   Z"
     id="path1395" />
  <path
     fill="#ffe07d"
     d="   M 512.00 164.31   L 512.00 184.56   C 510.68 188.93 507.81 189.76 503.35 189.75   Q 496.84 189.75 490.31 189.75   C 484.45 189.76 480.63 188.25 480.96 181.75   L 480.84 166.76   L 481.05 166.45   Q 481.23 166.16 481.22 165.82   C 481.01 159.90 484.92 158.81 490.11 158.77   Q 497.55 158.71 504.99 158.79   Q 510.68 158.86 512.00 164.31   Z"
     id="path1397" />
  <path
     fill="#ffd064"
     d="   M 31.38 166.80   L 80.63 166.78   L 80.64 181.77   L 31.04 181.75   L 31.38 166.80   Z"
     id="path1399" />
  <path
     fill="#ffd064"
     d="   M 431.29 166.75   L 480.84 166.76   L 480.96 181.75   L 431.50 181.79   Q 431.36 181.78 431.23 181.74   Q 431.09 181.71 431.09 181.56   L 431.29 166.75   Z"
     id="path1401" />
  <path
     fill="#ffe07d"
     d="   M 31.04 248.50   L 31.04 263.50   Q 31.22 271.31 23.51 271.40   Q 15.96 271.49 8.44 271.48   C 4.05 271.47 1.19 270.52 0.00 266.19   L 0.00 245.94   Q 1.51 240.49 7.76 240.50   Q 15.73 240.53 23.77 240.46   Q 31.21 240.40 31.04 248.50   Z"
     id="path1409" />
  <path
     fill="#ffe07d"
     d="   M 512.00 246.06   L 512.00 266.31   Q 510.32 271.50 504.50 271.50   C 499.87 271.50 487.51 272.65 483.88 270.30   Q 480.73 268.25 480.96 263.50   L 480.86 248.53   Q 480.70 243.94 483.78 241.83   C 487.41 239.35 500.03 240.46 504.75 240.44   Q 510.61 240.43 512.00 246.06   Z"
     id="path1413" />
  <path
     fill="#ffd064"
     d="   M 31.04 248.50   L 80.78 248.53   L 80.70 263.52   L 31.04 263.50   L 31.04 248.50   Z"
     id="path1415" />
  <path
     fill="#ffd064"
     d="   M 431.20 248.50   L 480.86 248.53   L 480.96 263.50   L 431.29 263.50   L 431.20 248.50   Z"
     id="path1417" />
  <path
     fill="#ffe07d"
     d="   M 31.04 330.25   L 31.00 345.29   Q 31.22 353.06 23.50 353.16   Q 15.97 353.25 8.44 353.23   C 4.04 353.22 1.19 352.28 0.00 347.94   L 0.00 327.69   C 1.00 323.36 3.81 322.30 8.13 322.27   Q 15.05 322.23 21.97 322.24   C 27.76 322.26 31.34 323.97 31.04 330.25   Z"
     id="path1419" />
  <path
     fill="#ffe07d"
     d="   M 512.00 327.81   L 512.00 348.06   Q 510.31 353.26 504.75 353.28   C 499.71 353.30 485.16 354.78 482.16 350.46   C 481.07 348.88 481.37 347.09 480.75 345.21   Q 481.42 337.71 480.82 330.26   Q 480.75 325.08 484.38 323.19   C 488.33 321.15 499.84 322.23 504.73 322.17   Q 510.69 322.11 512.00 327.81   Z"
     id="path1421" />
  <path
     fill="#ffd064"
     d="   M 31.04 330.25   L 80.82 330.22   L 80.75 345.29   L 31.00 345.29   L 31.04 330.25   Z"
     id="path1423" />
  <path
     fill="#ffd064"
     d="   M 431.29 330.23   L 480.82 330.26   Q 481.42 337.71 480.75 345.21   L 431.60 345.21   Q 430.89 338.60 431.21 331.93   C 431.24 331.34 430.73 330.72 431.29 330.23   Z"
     id="path1425" />
  <path
     fill="#756e78"
     d="   M 335.72 400.27   Q 335.05 410.04 335.17 419.78   C 335.24 425.28 331.99 427.47 329.25 431.21   L 263.50 431.21   L 248.50 431.16   L 181.75 431.19   L 166.79 431.25   C 159.28 430.53 150.36 433.05 146.72 424.19   C 144.43 418.61 145.80 406.75 145.50 400.29   L 335.72 400.27   Z"
     id="path1427" />
  <path
     fill="#665e66"
     d="   M 335.72 400.27   L 358.75 400.29   L 366.50 400.54   Q 366.55 406.89 366.48 413.24   C 366.40 420.57 366.86 425.36 361.36 429.23   C 357.41 432.01 349.99 431.42 345.25 431.29   L 330.24 431.42   L 329.25 431.21   C 331.99 427.47 335.24 425.28 335.17 419.78   Q 335.05 410.04 335.72 400.27   Z"
     id="path1429" />
  <path
     fill="#ffd064"
     d="   M 181.75 431.19   L 181.75 480.96   L 166.79 480.87   L 166.79 431.25   L 181.75 431.19   Z"
     id="path1431" />
  <path
     fill="#ffd064"
     d="   M 263.50 431.21   L 263.50 480.96   L 248.53 480.87   L 248.50 431.16   L 263.50 431.21   Z"
     id="path1433" />
  <path
     fill="#ffd064"
     d="   M 345.25 431.29   L 345.21 480.75   Q 337.76 481.36 330.27 480.86   L 330.24 431.42   L 345.25 431.29   Z"
     id="path1435" />
  <path
     fill="#ffe07d"
     d="   M 166.79 480.87   L 181.75 480.96   C 188.23 480.64 189.77 484.47 189.76 490.33   C 189.75 496.49 192.30 509.95 184.44 512.00   L 163.94 512.00   Q 158.79 510.49 158.78 505.93   Q 158.75 497.14 158.72 488.21   Q 158.69 480.83 166.79 480.87   Z"
     id="path1437" />
  <path
     fill="#ffe07d"
     d="   M 248.53 480.87   L 263.50 480.96   C 270.40 480.70 271.51 484.85 271.51 490.91   C 271.51 497.22 273.93 509.88 266.19 512.00   L 245.94 512.00   C 241.49 510.93 240.53 507.96 240.52 503.53   Q 240.50 495.92 240.46 488.21   Q 240.41 480.79 248.53 480.87   Z"
     id="path1439" />
  <path
     fill="#ffe07d"
     d="   M 330.27 480.86   Q 337.76 481.36 345.21 480.75   Q 350.07 480.75 352.09 484.00   C 354.43 487.78 353.23 500.25 353.19 504.98   Q 353.14 510.69 347.69 512.00   L 327.69 512.00   C 323.35 511.02 322.30 508.17 322.27 503.85   C 322.25 499.36 321.10 487.16 323.58 483.70   Q 325.69 480.75 330.27 480.86   Z"
     id="path1441" />
  <text
     xml:space="preserve"
     style="font-weight:bold;font-size:220px;font-family:Chalkboard;-inkscape-font-specification:'Chalkboard, Bold';fill:#756e78;fill-opacity:1"
     x="152.26877"
     y="293.16113"
     id="text1451"><tspan
       sodipodi:role="line"
       id="tspan1449"
       x="152.26877"
       y="293.16113"
       style="font-style:normal;font-variant:normal;font-weight:bold;font-stretch:normal;font-size:106.667px;font-family:Chalkboard;-inkscape-font-specification:'Chalkboard, Bold';font-variant-ligatures:normal;font-variant-caps:normal;font-variant-numeric:normal;font-variant-east-asian:normal;fill:#756e78;fill-opacity:1">LLM</tspan></text>
</svg>
